<?xml version="1.0" encoding="UTF-8"?>
<svg id="_ò__1" data-name="ò‡_1" xmlns="http://www.w3.org/2000/svg" viewBox="0 0 170.26 168.59">
  <defs>
    <style>
      .cls-1 {
        fill: #191816;
      }
    </style>
  </defs>
  <path class="cls-1" d="M119.21,58.52c2.12.26,3.18-.69,3.18-2.85l.07-16.66c0-2.01-.99-3.14-2.96-3.47-35.16-5.52-58.22,8-53.28,46.37.18,1.46-.95,2.74-2.41,2.74l-11.69.04c-1.86,0-2.78.91-2.78,2.78v19.22c0,1.79.91,2.7,2.7,2.67l11.29-.22c1.72-.04,2.56.8,2.56,2.52l-.15,48.86c0,1.32-1.28,2.23-2.49,1.79C29.79,150.43,10.68,127.88,5.89,94.7-2.33,37.83,53.51-9.02,108.18,7.97c81.86,25.4,73.35,142.85-11.4,156.16-.95.15-1.79-.58-1.79-1.53l-.04-51.35c0-1.24.62-1.86,1.86-1.9l17.4-.07c1.75-.04,2.78-.88,3.07-2.59l3.44-19.88c.26-1.43-.37-2.16-1.83-2.12h-21.38c-1.68,0-2.56-.84-2.59-2.52-.62-19.33,4.49-25.84,24.3-23.64h0Z"/>
</svg>