<?xml version="1.0" encoding="UTF-8"?>
<svg id="_ò__1" data-name="ò‡_1" xmlns="http://www.w3.org/2000/svg" viewBox="0 0 170.26 168.59">
  <defs>
    <style>
      .cls-1 {
        fill: #191816;
      }
    </style>
  </defs>
  <path class="cls-1" d="M165.31,84.3c0,44.29-35.89,80.18-80.18,80.18S4.95,128.59,4.95,84.3,40.84,4.12,85.13,4.12s80.18,35.89,80.18,80.18M110.49,43.7c-.4,0-.8.18-1.1.51l-20.1,24.01c-.58.73-1.72.69-2.27-.04l-18.05-24.01c-.29-.37-.69-.58-1.17-.58l-24.74-.15c-1.21,0-1.9,1.39-1.17,2.37l30.73,40.64c.4.51.37,1.28-.07,1.79l-29.71,35.23c-.84.99-.04,2.52,1.24,2.41l10.96-.95c.37,0,.73-.22.99-.51l22.73-26.86c.58-.69,1.72-.66,2.27.07l20.17,26.86c.29.37.69.58,1.17.58l24.89.4c1.24,0,1.94-1.39,1.21-2.34l-33-43.85c-.4-.55-.37-1.32.07-1.83l26.64-31.54c.8-.95.11-2.41-1.13-2.41l-10.56.18h0Z"/>
  <path class="cls-1" d="M104.35,115.1l-45.9-60.74c-1.21-1.61.26-3.84,2.19-3.36l3.29.8c.48.11.88.4,1.17.8l46.56,61.8c1.35,1.75-.58,4.13-2.56,3.18l-3.95-1.83c-.33-.15-.58-.37-.8-.66h0Z"/>
</svg>